<?xml version="1.0" encoding="UTF-8"?>
<svg width="87.503mm" height="48.41mm" version="1.1" viewBox="0 0 310.04877 171.53208" xmlns="http://www.w3.org/2000/svg">
 <defs>
  <clipPath id="a">
   <path d="m0 4.4748h579.04v305.18h-579.04z"/>
  </clipPath>
 </defs>
 <g transform="translate(-272.51 -328.38)">
  <path d="m296.53 368.02v131.14h259.39v-131.14h-259.39z" fill="#e38410" fill-rule="evenodd"/>
  <path d="m296.53 368.02v131.14h259.39v-131.14z" fill="none" stroke="#000" stroke-miterlimit="8" stroke-width=".65171px"/>
  <path d="m555.92 369.04 5.88-5.4615v130.09l-5.88 5.4935z" fill="#cd770f" fill-rule="evenodd"/>
  <path d="m555.92 369.04 5.88-5.4615v130.09l-5.88 5.4935z" fill="none" stroke="#000" stroke-miterlimit="8" stroke-width=".65171px"/>
  <path d="m285.22 361.7-12.394 13.127v5.685h297.02l12.394-13.095v-5.7169z" fill="#f09a32" fill-rule="evenodd"/>
  <path d="m272.83 374.82h297.02l12.394-13.127h-297.02z" fill="#f3ae5a" fill-rule="evenodd"/>
  <path d="m569.85 374.82 12.394-13.127v5.7169l-12.394 13.095z" fill="#c17c28" fill-rule="evenodd"/>
  <path transform="matrix(.5391 0 0 .57099 271.14 324.17)" d="m26.122 65.724-22.989 22.989v9.9564h550.96l22.99-22.933v-10.012z" clip-path="url(#a)" fill="none" stroke="#000" stroke-miterlimit="8" stroke-width="1.1746px"/>
  <path transform="matrix(.5391 0 0 .57099 271.14 324.17)" d="m3.1324 88.713h550.96l22.99-22.989" clip-path="url(#a)" fill="none" stroke="#000" stroke-miterlimit="8" stroke-width="1.1746px"/>
  <path d="m569.85 374.82v5.685" fill="none" stroke="#000" stroke-miterlimit="8" stroke-width=".65171px"/>
  <path d="m302.86 359.11-8.8654 9.3899v2.2038h263.16l8.8655-9.3579v-2.2357z" fill="#f09a32" fill-rule="evenodd"/>
  <path d="m294 368.5h263.16l8.8655-9.3899h-263.16z" fill="#f3ae5a" fill-rule="evenodd"/>
  <path d="m557.16 368.5 8.8655-9.3899v2.2357l-8.8655 9.3579z" fill="#c17c28" fill-rule="evenodd"/>
  <path d="m302.86 359.11-8.8654 9.3899v2.2038h263.16l8.8655-9.3579v-2.2357z" fill="none" stroke="#000" stroke-miterlimit="8" stroke-width=".65171px"/>
  <path d="m294 368.5h263.16l8.8655-9.3899" fill="none" stroke="#000" stroke-miterlimit="8" stroke-width=".65171px"/>
  <path d="m557.16 368.5v2.2038" fill="none" stroke="#000" stroke-miterlimit="8" stroke-width=".65171px"/>
  <path d="m318.15 344.99-9.7098-13.829h19.45z" fill="#eee" fill-rule="evenodd"/>
  <path d="m318.15 344.99-9.7098-13.829h19.45z" fill="none" stroke="#000" stroke-miterlimit="8" stroke-width=".65171px"/>
  <path d="m318.15 328.7c5.3976 0 9.7401 0.9901 9.7401 2.2676 0 1.2456-4.3425 2.2357-9.7401 2.2357-5.3675 0-9.7098-0.99012-9.7098-2.2357 0-1.2775 4.3422-2.2676 9.7098-2.2676z" fill="#f5f5f5" fill-rule="evenodd"/>
  <path d="m318.15 328.7c5.3976 0 9.7401 0.9901 9.7401 2.2676 0 1.2456-4.3425 2.2357-9.7401 2.2357-5.3675 0-9.7098-0.99012-9.7098-2.2357 0-1.2775 4.3422-2.2676 9.7098-2.2676" fill="none" stroke="#000" stroke-linejoin="round" stroke-miterlimit="10" stroke-width=".65171px"/>
  <path d="m318.18 360.04c3.1059 0 5.6088 0.57494 5.6088 1.2775 0 0.73455-2.5028 1.3095-5.6088 1.3095-3.1059 0-5.6087-0.57496-5.6087-1.3095 0-0.7026 2.5028-1.2775 5.6087-1.2775z" fill="#d9d9d9" fill-rule="evenodd"/>
  <path d="m318.18 360.04c3.1059 0 5.6088 0.57494 5.6088 1.2775 0 0.73455-2.5028 1.3095-5.6088 1.3095-3.1059 0-5.6087-0.57496-5.6087-1.3095 0-0.7026 2.5028-1.2775 5.6087-1.2775" fill="none" stroke="#000" stroke-linejoin="round" stroke-miterlimit="10" stroke-width=".65171px"/>
  <path d="m318.18 343.65c0.39204 0 0.69357 0.12785 0.69357 0.28743v16.991c0 0.15964-0.30153 0.28743-0.69357 0.28743-0.36185 0-0.6634-0.12766-0.6634-0.28743v-16.991c0-0.15964 0.30155-0.28743 0.6634-0.28743z" fill="#eaeaea" fill-rule="evenodd"/>
  <path d="m318.87 343.94c0 0.12787-0.30153 0.25551-0.69357 0.25551-0.36185 0-0.6634-0.12765-0.6634-0.25551 0-0.15964 0.30155-0.28743 0.6634-0.28743 0.39204 0 0.69357 0.12785 0.69357 0.28743z" fill="#efefef" fill-rule="evenodd"/>
  <path d="m318.18 343.65c0.39204 0 0.69357 0.12785 0.69357 0.28743v16.991c0 0.15964-0.30153 0.28743-0.69357 0.28743-0.36185 0-0.6634-0.12766-0.6634-0.28743v-16.991c0-0.15964 0.30155-0.28743 0.6634-0.28743z" fill="none" stroke="#000" stroke-linejoin="round" stroke-miterlimit="10" stroke-width=".65171px"/>
  <path d="m318.87 343.94c0 0.12787-0.30153 0.25551-0.69357 0.25551-0.36185 0-0.6634-0.12765-0.6634-0.25551" fill="none" stroke="#000" stroke-linejoin="round" stroke-miterlimit="10" stroke-width=".65171px"/>
  <path d="m344.29 349.5-9.7097-13.797h19.45z" fill="#eee" fill-rule="evenodd"/>
  <path d="m344.29 349.5-9.7097-13.797h19.45z" fill="none" stroke="#000" stroke-miterlimit="8" stroke-width=".65171px"/>
  <path d="m344.29 333.21c5.398 0 9.7399 1.022 9.7399 2.2676s-4.3419 2.2676-9.7399 2.2676c-5.3673 0-9.7097-1.022-9.7097-2.2676s4.3424-2.2676 9.7097-2.2676z" fill="#f5f5f5" fill-rule="evenodd"/>
  <path d="m344.29 333.21c5.398 0 9.7399 1.022 9.7399 2.2676s-4.3419 2.2676-9.7399 2.2676c-5.3673 0-9.7097-1.022-9.7097-2.2676s4.3424-2.2676 9.7097-2.2676" fill="none" stroke="#000" stroke-linejoin="round" stroke-miterlimit="10" stroke-width=".65171px"/>
  <path d="m344.33 364.54c3.1058 0 5.6088 0.6068 5.6088 1.3094 0 0.7346-2.503 1.3095-5.6088 1.3095s-5.6088-0.57487-5.6088-1.3095c0-0.70265 2.503-1.3094 5.6088-1.3094z" fill="#d9d9d9" fill-rule="evenodd"/>
  <path d="m344.33 364.54c3.1058 0 5.6088 0.6068 5.6088 1.3094 0 0.7346-2.503 1.3095-5.6088 1.3095s-5.6088-0.57487-5.6088-1.3095c0-0.70265 2.503-1.3094 5.6088-1.3094" fill="none" stroke="#000" stroke-linejoin="round" stroke-miterlimit="10" stroke-width=".65171px"/>
  <path d="m344.33 348.19c0.39191 0 0.69382 0.12767 0.69382 0.25551v17.023c0 0.15963-0.30191 0.2555-0.69382 0.2555-0.36174 0-0.69329-0.0959-0.69329-0.2555v-17.023c0-0.12786 0.33155-0.25551 0.69329-0.25551z" fill="#eaeaea" fill-rule="evenodd"/>
  <path d="m345.02 348.44c0 0.15963-0.30191 0.28746-0.69382 0.28746-0.36174 0-0.69329-0.12787-0.69329-0.28746 0-0.12786 0.33155-0.25551 0.69329-0.25551 0.39191 0 0.69382 0.12767 0.69382 0.25551z" fill="#efefef" fill-rule="evenodd"/>
  <path d="m344.33 348.19c0.39191 0 0.69382 0.12767 0.69382 0.25551v17.023c0 0.15963-0.30191 0.2555-0.69382 0.2555-0.36174 0-0.69329-0.0959-0.69329-0.2555v-17.023c0-0.12786 0.33155-0.25551 0.69329-0.25551z" fill="none" stroke="#000" stroke-linejoin="round" stroke-miterlimit="10" stroke-width=".65171px"/>
  <path d="m345.02 348.44c0 0.15963-0.30191 0.28746-0.69382 0.28746-0.36174 0-0.69329-0.12787-0.69329-0.28746" fill="none" stroke="#000" stroke-linejoin="round" stroke-miterlimit="10" stroke-width=".65171px"/>
  <path d="m560.14 363.45 1.7796 8.3998h6.0007l1.7488-8.3998z" fill="#d9d9d9" fill-rule="evenodd"/>
  <path d="m560.14 363.45 1.7796 8.3998h6.0007l1.7488-8.3998z" fill="none" stroke="#000" stroke-miterlimit="8" stroke-width=".65171px"/>
  <path d="m564.91 362.37c-2.6233 0-4.7646 0.47906-4.7646 1.0859 0 0.60678 2.1413 1.1178 4.7646 1.1178 2.6238 0 4.7646-0.51103 4.7646-1.1178 0-0.60686-2.1408-1.0859-4.7646-1.0859z" fill="#f1f1f1" fill-rule="evenodd"/>
  <path d="m564.91 362.37c-2.6233 0-4.7646 0.47906-4.7646 1.0859 0 0.60678 2.1413 1.1178 4.7646 1.1178 2.6238 0 4.7646-0.51103 4.7646-1.1178 0-0.60686-2.1408-1.0859-4.7646-1.0859" fill="none" stroke="#000" stroke-linejoin="round" stroke-miterlimit="10" stroke-width=".65171px"/>
  <path d="m564.94 371.05c-1.6885 0-3.0756 0.28744-3.0756 0.67069v1.3095c0 0.38324 1.3871 0.6707 3.0756 0.6707s3.0459-0.28746 3.0459-0.6707v-1.3095c0-0.38325-1.3575-0.67069-3.0459-0.67069z" fill="#d7d7d7" fill-rule="evenodd"/>
  <path d="m561.86 371.73c0 0.35131 1.3871 0.63876 3.0756 0.63876s3.0459-0.28745 3.0459-0.63876c0-0.38325-1.3575-0.67069-3.0459-0.67069s-3.0756 0.28744-3.0756 0.67069z" fill="#dfdfdf" fill-rule="evenodd"/>
  <path d="m564.94 371.05c-1.6885 0-3.0756 0.28744-3.0756 0.67069v1.3095c0 0.38324 1.3871 0.6707 3.0756 0.6707s3.0459-0.28746 3.0459-0.6707v-1.3095c0-0.38325-1.3575-0.67069-3.0459-0.67069z" fill="none" stroke="#000" stroke-linejoin="round" stroke-miterlimit="10" stroke-width=".65171px"/>
  <path d="m561.86 371.73c0 0.35131 1.3871 0.63876 3.0756 0.63876s3.0459-0.28745 3.0459-0.63876" fill="none" stroke="#000" stroke-linejoin="round" stroke-miterlimit="10" stroke-width=".65171px"/>
 </g>
</svg>
