<?xml version="1.0" encoding="UTF-8"?>
<svg viewBox="0 0 48 48" xmlns="http://www.w3.org/2000/svg" xmlns:xlink="http://www.w3.org/1999/xlink">
 <defs>
  <filter id="n">
   <feGaussianBlur stdDeviation=".29953"/>
  </filter>
  <filter id="s" x="-.35549" y="-.29492" width="1.711" height="1.5898">
   <feGaussianBlur stdDeviation=".49154"/>
  </filter>
  <filter id="r" x="-.5837" y="-.12971" width="2.1674" height="1.2594">
   <feGaussianBlur stdDeviation=".49154"/>
  </filter>
  <filter id="q" x="-.43778" y="-.16188" width="1.8756" height="1.3238">
   <feGaussianBlur stdDeviation=".49154"/>
  </filter>
  <filter id="p" x="-.51885" y="-.19457" width="2.0377" height="1.3891">
   <feGaussianBlur stdDeviation=".49154"/>
  </filter>
  <filter id="o" x="-.22236" y="-.46365" width="1.4447" height="1.9273">
   <feGaussianBlur stdDeviation=".49154"/>
  </filter>
  <filter id="t" x="-.0665" y="-.38793" width="1.133" height="1.7759">
   <feGaussianBlur stdDeviation=".96984"/>
  </filter>
  <filter id="m" x="-.0456" y="-.10995" width="1.0912" height="1.2199"/>
  <linearGradient id="a">
   <stop stop-color="#ffd73b" offset="0"/>
   <stop stop-color="#ee8400" offset="1"/>
  </linearGradient>
  <linearGradient id="b">
   <stop stop-color="#f9f9f9" stop-opacity=".98519" offset="0"/>
   <stop stop-color="#d5d5d5" offset="1"/>
  </linearGradient>
  <linearGradient id="l" x1="25" x2="32.714" y1="24.643" y2="24.724" gradientUnits="userSpaceOnUse" xlink:href="#a"/>
  <linearGradient id="k" x1="20.179" x2="25.325" y1="24.643" y2="24.768" gradientUnits="userSpaceOnUse" xlink:href="#a"/>
  <linearGradient id="j" x1="12.464" x2="17.611" gradientUnits="userSpaceOnUse" xlink:href="#a"/>
  <linearGradient id="i" x1="8.8482" x2="15.357" y1="23.724" y2="24.643" gradientUnits="userSpaceOnUse" xlink:href="#a"/>
  <linearGradient id="h" x1="42.357" x2="31.75" y1="27.536" y2="18.857" gradientUnits="userSpaceOnUse" xlink:href="#a"/>
  <linearGradient id="g" x1="31.588" x2="2.8214" y1="32.692" y2="16.929" gradientUnits="userSpaceOnUse" xlink:href="#a"/>
  <linearGradient id="f" x1="29" x2="-5" y1="35" y2="63" gradientUnits="userSpaceOnUse" xlink:href="#a"/>
  <linearGradient id="e" x1="14" x2="12" y1="9" y2="5" gradientTransform="matrix(.98968 -.14331 .14331 .98968 -.5837 2.7625)" gradientUnits="userSpaceOnUse" xlink:href="#b"/>
  <linearGradient id="d" x2="0" y1="5" y2="9" gradientUnits="userSpaceOnUse" xlink:href="#b"/>
  <radialGradient id="c" cx="14.737" cy="4.205" r="15.925" gradientTransform="matrix(2.652 .56778 -.20491 .95711 -23.484 -5.1499)" gradientUnits="userSpaceOnUse" xlink:href="#b"/>
 </defs>
 <path transform="matrix(.85113 0 0 1 2.597 .25263)" d="m40 40a17.5 3 0 1 1 -35 0 17.5 3 0 1 1 35 0z" fill-opacity=".7686" fill-rule="evenodd" filter="url(#t)"/>
 <path d="m32.714 17.893c4.7428-4.2931 9.7969-2.853 8.6786 3.8571-0.96428 5.7857-9.6429 9.6429-9.6429 9.6429v-3.8571s5.3188-1.9894 5.7857-3.8571c0.96429-3.8571-2.8929-3.8571-4.8214-1.9286v-3.8571z" fill="url(#h)"/>
 <path d="m9.5816 35.697c-2.903-0.44662-2.903 3.4105-0.97444 5.3391 3.8571 1.9286 24.611 2.6281 26.036 0 1.2996-2.3979 1.9286-3.8571 0-5.7857-2.1562-2.1562-23.123 0.89323-25.061 0.44662z" fill="url(#f)"/>
 <path d="m8.6071 10.179c8.7943 2.5452 17.458 2.2139 26.036 0-2.1262 9.7405-1.9871 16.827 0 27-9.2035 3.5432-17.689 2.2396-26.036 0 0.60368-8.8777 1.4799-14.372 0-27z" fill="url(#g)"/>
 <path d="m12.464 15c1.973-1.2194 3.4958-0.93825 4.8214 0 0.5586 6.5682 0.2886 12.929 0 19.286-1.6071 1.2197-3.2143 1.5852-4.8214 0 0.45735-4.9499 1.5361-10.98 0-19.286z" fill="url(#j)" fill-opacity=".89286"/>
 <path d="m8.96875,13.64397c.79942,8.67693.36112,13.92005-.12054,20.1596 .24107-.14082.48214-.29918.72321-.48214 .53785-6.19807.95264-12.44887 0-19.28571-.19716-.13954-.39597-.28404-.60268-.39174z" fill="url(#i)" fill-opacity=".89286"/>
 <path d="m20.179 15c0.96429-0.96429 2.8929-0.96429 4.8214 0 0.49911 6.6781 0.36242 14.003 0 20.25-1.6071 1.2708-3.2143 1.3275-4.8214 0-0.27181-6.1568-0.37433-13.447 0-20.25z" fill="url(#k)" fill-opacity=".89286"/>
 <path d="m27.893 15c1.4346-0.57531 2.7646-1.4988 4.8214 0-1.3807 6.8888-0.46861 13.013 0 19.286-1.5244 0.99242-3.0828 1.5772-4.8214 0-0.63788-6.4286-1.0705-12.857 0-19.286z" fill="url(#l)" fill-opacity=".89286"/>
 <path d="m9.744 19.618c-0.17256 0.20301-3.0654 0.20301-3.0654-1.7256s-0.96429-0.96429-0.96429-4.8214c-1.9344-4.4004 3.0238-10.986 7.7143-10.607 5.3079 1.3172 8.5714-2.4643 15.429 1.9286 3.8571 0.96429 5.7857 0 6.75 2.8929s2.8929 8.6786 0 5.7857-3.6071-2.0714-3.6071-1.0714c0 3.8571-2.2699 3.7714-4.635 2.4214s-6.2222-4.2429-7.1865-0.38571-3.8571 4.8214-3.8571 1.9286-4.8214-6.75-4.8214-2.8929-2.7102 4.0906-1.756 6.547z" fill="url(#c)"/>
 <path d="m8.6348 9.426s-0.29792-0.8822 1.5381-2.1585 3.2556 1.5494 4.102 0.41644 1.4061-4.2453 3.6721-2.5526l2.266 1.6927s-6.4157 5.6408-11.578 2.6019z" fill="url(#e)"/>
 <path d="m23.242 5.979c1.8745-2.0482 2.4246-0.61596 2.7579 0.02105 0 0 2-2 3-1s1 2 1 2-3.8526 2.2947-6.7579-1.021z" fill="url(#d)"/>
 <path d="m9,41c-1.563-2.01648-1.43489-3.09346-1-4 .56854.47364 1.80684.72404 3.03158.97895-1.28047.40374-3.09849.26993-2.03158,3.02105z" fill="#fff" fill-opacity=".70536" filter="url(#s)"/>
 <path d="m35.368 16.421c2.4426-0.09852 4.0956 0.95569 5.3053 1.9368 0 0-0.92632-4.0421-5.3053-1.9368z" fill="#fff" fill-opacity=".70536" filter="url(#o)"/>
 <path d="m12.8,15.41053c.60312,3.20643.66264,5.59747.8421,8.16842 .33949-3.09272-.56159-7.60323 1.17895-9.09474-.67368.09635-1.34737.17426-2.02105.92632z" fill="#fff" fill-opacity=".70536" filter="url(#r)"/>
 <path d="m20.211 21.895 0.16842-6.5684c0.8421-1.1008 1.6842-0.58592 2.5263-0.67368-2.6138 2.0709-2.1306 4.7612-2.6947 7.2421z" fill="#fff" fill-opacity=".70536" filter="url(#q)"/>
 <path d="m27.537 21.221-0.08421-5.3053c0.94804-1.2034 1.5251-0.5519 2.2737-0.75789-1.6725 1.0783-1.8021 3.6996-2.1895 6.0632z" fill="#fff" fill-opacity=".70536" filter="url(#p)"/>
 <path d="m6.0632 11.453c-0.00437-0.32355 2.4771-7.6458 8.421-7.8316 4.2104 0.03754 8.8411-0.41517 11.789 1.0947-1.136-2.7626-7.726-2.1357-11.621-1.4316-2.4116-1.6729-8.9282 1.7862-8.5895 8.1684z" fill="#fff" filter="url(#n)"/>
 <path d="m9.0947 9.0105c1.2082-2.0592 3.1219-1.6487 5.221-0.58947 1.6764-4.1976 2.9781-3.711 4.2105-2.3579-2.024-1.1465-3.0475 0.95875-4.2105 2.6105-1.8627-0.43813-3.7896-1.1654-5.221 0.33684z" fill="#fff" filter="url(#m)"/>
</svg>
